<svg id="Calque_1" data-name="Calque 1" xmlns="http://www.w3.org/2000/svg" xmlns:xlink="http://www.w3.org/1999/xlink" viewBox="0 0 1920 1080"><defs><style>.cls-1{fill:url(#Dégradé_sans_nom_17);}.cls-2{fill:url(#Dégradé_sans_nom_18);}.cls-3{fill:url(#Dégradé_sans_nom_19);}.cls-4{fill:url(#Dégradé_sans_nom_16);}.cls-5{fill:#44b48f;}.cls-6{fill:url(#Dégradé_sans_nom_10);}</style><linearGradient id="Dégradé_sans_nom_17" x1="985.68" y1="415.95" x2="798.62" y2="135.59" gradientUnits="userSpaceOnUse"><stop offset="0.11" stop-color="#79bc66"/><stop offset="0.77" stop-color="#45b48e"/></linearGradient><linearGradient id="Dégradé_sans_nom_18" x1="1042.52" y1="390.83" x2="1196.2" y2="87.31" gradientUnits="userSpaceOnUse"><stop offset="0.05" stop-color="#79bc66"/><stop offset="0.57" stop-color="#45b48e"/></linearGradient><linearGradient id="Dégradé_sans_nom_19" x1="1144.73" y1="474.63" x2="1489.21" y2="384.12" gradientUnits="userSpaceOnUse"><stop offset="0.16" stop-color="#79bc66"/><stop offset="0.7" stop-color="#45b48e"/></linearGradient><linearGradient id="Dégradé_sans_nom_16" x1="825.32" y1="482.69" x2="492.55" y2="386.67" gradientUnits="userSpaceOnUse"><stop offset="0.22" stop-color="#79bc66"/><stop offset="0.67" stop-color="#45b48e"/></linearGradient><linearGradient id="Dégradé_sans_nom_10" x1="916.58" y1="622.71" x2="1084.23" y2="477.33" gradientUnits="userSpaceOnUse"><stop offset="0.22" stop-color="#79bc66"/><stop offset="0.78" stop-color="#45b48e"/></linearGradient></defs><title>Plan de travail 8300</title><path id="Vector" class="cls-1" d="M872.37,395.46c-1.75,1-3.45,2.13-5.08,3.17-.76.47-1.51,1-2.19,1.45q-6.68,4.37-13,9.31h0l-.05,0-1,.79-1.11.86h0c-1.36,1.08-2.77,2.2-4.16,3.36L634.18,203.26a529.77,529.77,0,0,1,122-81.34h0c9.66-4.67,19.52-9,29.48-13.11A526.36,526.36,0,0,1,964.47,70.06L964.84,365c-1.23.1-2.41.23-3.51.35h-.12l-1.48.17h0l-1.41.17c-.37,0-.68.06-.89.09l-.5.07h-.12c-1,.14-2.15.29-3.28.49l-1.75.27-1.52.24a6.72,6.72,0,0,0-.87.12l-.16,0-.09,0h0l-39.34,10.42-.13,0-.16.06a214.79,214.79,0,0,0-30.19,13.93l0,0,0,0c-.72.43-1.49.86-2.22,1.24l-.09.05-.09.05c-.78.47-1.52.9-2.29,1.33l-.07,0-.06,0-1,.58h0Z"/><path id="Vector_3" data-name="Vector 3" class="cls-2" d="M1006.48,365l-.36-295a526.6,526.6,0,0,1,178.93,38.32h0c10,4.05,19.81,8.43,29.51,13a530.06,530.06,0,0,1,122.19,81.06L1125.65,414.2c-1.39-1.16-2.81-2.28-4.17-3.35h0c-.37-.3-.76-.59-1.1-.86l-1-.79,0,0,0,0c-4.23-3.25-8.6-6.34-13.06-9.29l-1-.68h0l-1-.64h0l0,0h0c-.76-.49-1.55-1-2.32-1.48s-1.66-1-2.4-1.46-1.66-1-2.39-1.45l0,0-2.31,3.93,2.31-3.93,0,0c-.76-.44-1.56-.91-2.42-1.39s-1.68-.95-2.49-1.38a215.66,215.66,0,0,0-30.18-13.83l-.16-.06-.12,0-.12,0h0c-.11,0-.31-.12-.57-.2-.81-.32-1.7-.64-2.62-.93-.69-.25-1.46-.51-2.19-.75l-1.28-.44h-.07c-2.3-.75-4.59-1.45-6.83-2.13h0l-.11,0-.11,0h0l-.09,0-.33-.09-.49-.14c-.54-.16-1.3-.39-2-.54s-1.37-.37-1.87-.49l-1-.26h0l-1-.27h-.07l-.17,0-.34-.1c-.18,0-.46-.11-.79-.17-1-.27-2-.5-2.93-.72l-1.8-.4h0l-1.79-.41h0q-3.48-.76-7-1.39l-.24-.05-.18,0-.11,0-.1,0c-1-.19-1.88-.33-2.76-.46a7.69,7.69,0,0,0-1.45-.21l-1.49-.23-1.74-.27c-1.14-.2-2.26-.34-3.28-.47h-.13l-.62-.07-.58-.06-1.6-.19h0l-1.48-.17H1010C1008.9,365.24,1007.69,365.11,1006.48,365Z"/><path id="Vector_4" data-name="Vector 4" class="cls-3" d="M1204.15,557.31v-.06c0-.12,0-.25,0-.37-.12-.89-.24-1.88-.39-2.89a.66.66,0,0,1,0-.14,6.87,6.87,0,0,0-.12-.81c-.07-.46-.14-.94-.21-1.46v0c-.07-.49-.15-1-.23-1.56a6.66,6.66,0,0,0-.12-.81c0-.12,0-.24,0-.28a.14.14,0,0,0,0-.06h0l-.69-4h0c-.1-.59-.21-1.18-.31-1.71v0c-.1-.55-.2-1.06-.28-1.56l0-.11,0-.1c0-.23-.1-.45-.15-.74v-.09c-.06-.29-.13-.65-.22-1s-.22-1.07-.33-1.62-.23-1.14-.35-1.7v-.06c-.28-1.27-.57-2.62-.91-4l0-.08,0-.07,0-.22h0c0-.12-.08-.35-.16-.62-.29-1.23-.62-2.44-.92-3.56v0l-1-3.59v0l0,0-.35-1.18h0l-.33-1.09c-.34-1.22-.73-2.43-1.09-3.55-.71-2.38-1.53-4.75-2.31-7h0l0-.05c-.09-.27-.19-.56-.3-.86-.29-.82-.62-1.74-1-2.64a213.32,213.32,0,0,0-13.88-30.13q-1.35-2.49-2.84-5l-.71-1.18h0c-.23-.38-.45-.73-.66-1.1v0c-1.17-1.95-2.4-3.94-3.69-5.86-.72-1.13-1.46-2.24-2.2-3.31-.55-.87-1.18-1.73-1.69-2.43l-.16-.23c-.27-.39-.53-.75-.75-1.05l0,0c-.25-.34-.44-.61-.61-.87l0-.05,0-.05c-1.14-1.61-2.32-3.21-3.5-4.76-.29-.4-.59-.77-.86-1.12h0l-.8-1h0l0,0c-1.42-1.86-2.9-3.7-4.38-5.5L1367,231.2a532.27,532.27,0,0,1,87.25,119.87c5,9.51,9.84,19.14,14.27,28.94h0a527.87,527.87,0,0,1,46.3,182.39l-310.12.38c-.06-.74-.14-1.42-.22-2v0c0-.29-.07-.58-.1-1v0c0-.34-.07-.74-.12-1.16s-.09-.89-.14-1.28Z"/><path id="Vector_4-2" data-name="Vector 4" class="cls-4" d="M767.61,558.22v-.07c0-.12,0-.24,0-.36.12-.9.24-1.89.39-2.89a.71.71,0,0,0,0-.15,6.78,6.78,0,0,1,.12-.8c.07-.47.14-.94.21-1.46v0c.07-.49.15-1,.23-1.56a6.91,6.91,0,0,1,.12-.82c0-.11,0-.23,0-.27a.14.14,0,0,1,0-.06v0l.69-4h0c.1-.6.21-1.18.31-1.72v0c.1-.56.2-1.07.28-1.57l0-.1,0-.1c.05-.23.1-.46.15-.74v-.09c.06-.29.13-.65.22-1s.22-1.06.33-1.62.23-1.13.35-1.69V537c.28-1.27.57-2.62.91-4l0-.07,0-.08.05-.21v0c0-.11.08-.35.16-.62.29-1.22.62-2.43.92-3.56v0l1-3.6v-.05l0,0,.35-1.17h0c.11-.38.22-.73.33-1.09.34-1.22.73-2.43,1.09-3.55.72-2.39,1.53-4.75,2.31-7h0l0-.05c.09-.27.19-.55.3-.85.29-.82.62-1.74,1-2.64a213.43,213.43,0,0,1,13.88-30.14c.9-1.66,1.85-3.31,2.84-5l.71-1.17h0c.23-.38.45-.74.66-1.1v0c1.17-1.95,2.4-3.94,3.69-5.86.72-1.13,1.46-2.25,2.2-3.31.55-.87,1.18-1.73,1.69-2.43l.16-.23c.27-.39.53-.76.75-1.06l0,0c.25-.35.44-.61.61-.87l0-.05,0-.05c1.14-1.61,2.32-3.21,3.5-4.77.29-.39.59-.77.86-1.11h0l.8-1h0l0,0c1.42-1.85,2.9-3.7,4.38-5.5L604.73,232.11A532.27,532.27,0,0,0,517.48,352c-5,9.51-9.84,19.14-14.27,28.93h0a527.92,527.92,0,0,0-46.3,182.39L767,563.7c.06-.74.14-1.42.22-2v-.05c0-.29.07-.59.1-1v0c0-.34.07-.75.12-1.17s.09-.88.14-1.28Z"/><path class="cls-5" d="M443.34,765.7h31.85q26.18,0,37.27,5.26t17.86,17.48q6.75,12.22,6.75,28.92,0,17.53-7.46,29.34t-22.49,17.84l37.42,79.12H511.67l-35.51-75.37H473.4v75.37H443.34Zm30.06,69.56h9.42q14.35,0,19.75-4.25T508,816.93a18.84,18.84,0,0,0-2.68-10.13,15.16,15.16,0,0,0-7.17-6.19q-4.5-1.89-16.48-1.88H473.4Z"/><path class="cls-5" d="M651.85,812h29.31V943.66H651.85V929.75q-8.58,9.19-17.21,13.25a43.51,43.51,0,0,1-18.71,4q-22.63,0-39.15-19.78t-16.51-49.18q0-30.48,16-50t38.82-19.47a44.67,44.67,0,0,1,19.73,4.47,54.31,54.31,0,0,1,17.05,13.43ZM621,839.13q-13.59,0-22.58,10.83t-9,27.77q0,17.06,9.15,28.06t22.52,11A28.63,28.63,0,0,0,644,906q9.11-10.83,9.1-28.37,0-17.19-9.1-27.83A28.94,28.94,0,0,0,621,839.13Z"/><path class="cls-5" d="M698.29,812h29.86l29.51,77.67L787.11,812h29.71L767.11,943.66h-19Z"/><path class="cls-5" d="M845.38,757.83a17,17,0,0,1,13.23,6.29,22.38,22.38,0,0,1,5.51,15.25,22.05,22.05,0,0,1-5.46,15.06,16.79,16.79,0,0,1-13.06,6.23,17.05,17.05,0,0,1-13.33-6.35,22.7,22.7,0,0,1-5.51-15.43A21.69,21.69,0,0,1,832.21,764,17,17,0,0,1,845.38,757.83ZM830.73,812H860V943.66H830.73Z"/><path class="cls-5" d="M1035.05,797l-21,22.59Q992.57,794,965.75,794q-22.63,0-38.13,17.44t-15.51,43q0,17.8,6.87,31.61a52.59,52.59,0,0,0,19.42,21.67,51.38,51.38,0,0,0,27.89,7.87,51.92,51.92,0,0,0,23.92-5.51q10.83-5.51,23.82-20l20.38,24q-17.51,19.25-33.07,26.69t-35.54,7.44q-36.82,0-60.29-26.31t-23.46-67.45q0-26.62,10.68-47.31a84.77,84.77,0,0,1,30.6-33.27,78.94,78.94,0,0,1,42.9-12.58,81.31,81.31,0,0,1,37.63,9.3A91.89,91.89,0,0,1,1035.05,797Z"/><path class="cls-5" d="M1058.24,761.22h29.1v64.12a66.48,66.48,0,0,1,17.29-12.52,40.3,40.3,0,0,1,17.6-4.17q17.4,0,29.32,13.55,10.2,11.73,10.2,34.48v87h-28.89V886q0-22.86-1.93-31t-6.6-12.1a17.16,17.16,0,0,0-11.54-4,20.43,20.43,0,0,0-15.3,6.66q-6.39,6.65-8.86,18.14-1.29,5.94-1.29,27.1v52.87h-29.1Z"/><path class="cls-5" d="M1307.12,887.41H1213q2,14,10.9,22.32t22.6,8.28q16.43,0,28.24-12.94l24.69,13.06q-9.23,14.77-22.12,21.84t-30.6,7.08q-27.48,0-44.77-19.54t-17.28-48.94q0-30.12,17.23-50t43.21-19.9q27.6,0,44.88,19.9t17.29,52.56Zm-29.31-26a33.26,33.26,0,0,0-11.45-17.9,30.69,30.69,0,0,0-19.85-6.9,32.53,32.53,0,0,0-21.51,7.75q-5.8,4.83-10.75,17Z"/><path class="cls-5" d="M1445.2,838.65l-24.4,15.12q-6.88-8.1-13.6-11.25a36.77,36.77,0,0,0-15.75-3.14q-16.44,0-26.6,11t-10.16,28.32q0,16.8,9.78,27.42t25.69,10.63q19.68,0,30.64-15.12l23.11,17.83q-18.79,27.54-53,27.54-30.81,0-48.26-20.57t-17.45-48.15a74.35,74.35,0,0,1,8.48-35.2,63.65,63.65,0,0,1,23.68-25.29,64.33,64.33,0,0,1,34-9.19,61,61,0,0,1,53.9,30Z"/><path class="cls-5" d="M1471.83,761.22h29.31V866.3L1544.3,812h36.81l-50.32,63.09,56.34,68.54h-36.39L1501.14,883v60.66h-29.31Z"/><path class="cls-6" d="M994.9,677.74a111,111,0,1,1,65.81-186.14l-83.38,97.9-22.47-30.3a13,13,0,1,0-21,15.55l31.73,42.8a13,13,0,0,0,7.77,5s0,0,0,0A13,13,0,0,0,987,618.46l89.66-105.28A111,111,0,0,1,994.9,677.74Z"/></svg>